<svg width="90" height="90" viewBox="0 0 90 90" fill="none" xmlns="http://www.w3.org/2000/svg">
<g clip-path="url(#clip0)">
<path d="M27.9194 6.19165C30.586 1.05025 37.2062 -0.507555 41.8857 2.90521L81.4837 31.7841C85.4286 34.6611 86.5345 40.0685 84.0359 44.2633L60.5227 83.7395C57.7854 88.3352 51.7841 89.7474 47.2847 86.8546L8.63507 62.006C4.52809 59.3656 3.10665 54.0325 5.35463 49.6982L27.9194 6.19165Z" fill="#3794A8"/>
<path d="M32.1865 4.19951C32.6932 1.78961 35.8191 1.12551 37.2618 3.12129L60.0838 34.6936C61.3849 36.4935 61.2578 38.9563 59.7785 40.6128L49.0147 52.6656C47.7533 54.0782 45.7707 54.6017 43.9763 53.9961L27.1708 48.3243C24.9011 47.5583 23.563 45.2159 24.0558 42.8717L32.1865 4.19951Z" fill="#56A6B8"/>
<path d="M58.1176 84.2021C57.2462 85.6611 55.0423 85.3198 54.653 83.6655L49.1856 60.4309C48.6157 58.009 49.2731 55.4617 50.9439 53.6181L61.8694 41.5625C62.7871 40.5499 64.098 39.9839 65.4642 40.0103L79.4081 40.28C81.5858 40.3221 82.9056 42.701 81.7888 44.571L58.1176 84.2021Z" fill="#347B8B"/>
<path d="M49.3829 86.1358C50.8143 87.0413 52.6228 85.753 52.2348 84.1043L46.7019 60.5912C46.1033 58.0475 44.2344 55.9929 41.7586 55.1568L25.3952 49.6306C24.1856 49.2221 22.8621 49.3201 21.7259 49.9025L9.78142 56.0245C7.82724 57.0261 7.70307 59.7727 9.5589 60.9465L49.3829 86.1358Z" fill="#347B8B"/>
</g>
<defs>
<clipPath id="clip0">
<rect width="90" height="90" fill="white"/>
</clipPath>
</defs>
</svg>
