<svg width="143" height="90" viewBox="0 0 143 90" fill="none" xmlns="http://www.w3.org/2000/svg">
<g clip-path="url(#clip0)">
<path d="M128.784 81.2907C127.317 86.8937 121.203 89.8734 115.886 87.577L70.8933 68.1443C66.411 66.2084 64.1395 61.1782 65.6512 56.5356L79.8772 12.845C81.5333 7.75871 87.0752 5.05753 92.102 6.88653L135.281 22.5973C139.869 24.2667 142.432 29.1549 141.195 33.8783L128.784 81.2907Z" fill="#9D4555"/>
<path d="M125.061 84.175C125.098 86.6373 122.196 87.9746 120.349 86.3462L91.1242 60.5859C89.4582 59.1174 89.0388 56.6872 90.1163 54.7452L97.9562 40.6149C98.875 38.9589 100.693 38.0109 102.577 38.2057L120.22 40.0307C122.602 40.2772 124.424 42.2667 124.461 44.6619L125.061 84.175Z" fill="#913445"/>
<path d="M82.121 11.8633C82.6491 10.248 84.874 10.0948 85.6186 11.6224L96.0766 33.0786C97.1667 35.3151 97.0874 37.9447 95.8645 40.1115L87.8675 54.2801C87.1958 55.4702 86.042 56.3115 84.7036 56.5871L71.0437 59.3999C68.9103 59.8392 67.0983 57.8101 67.7752 55.7398L82.121 11.8633Z" fill="#AC5161"/>
<path d="M90.214 8.05038C88.6181 7.48303 87.1384 9.13844 87.8805 10.661L98.4638 32.3744C99.6087 34.7234 101.885 36.3151 104.484 36.5845L121.663 38.365C122.933 38.4966 124.203 38.109 125.182 37.2903L135.482 28.6843C137.167 27.2764 136.683 24.57 134.613 23.8344L90.214 8.05038Z" fill="#BC6071"/>
<path d="M115.5 86.5C116.9 87.1128 118.731 87.8992 118.611 86.8921C118.579 86.625 118.402 86.4019 118.212 86.2115L116.5 84.4973L90 61.5V61.5C89.3491 60.8491 88.5109 60.3995 87.6819 59.9994C87.0293 59.6844 86.3583 59.3379 85.7753 59.2992C85.235 59.2634 84.7363 59.5818 84.2191 59.7423L73.725 62.9988C73.4147 63.0951 73.1119 63.2318 72.8839 63.4633C71.5305 64.8368 71.9214 67.2305 73.7792 68.0435L115.5 86.5Z" fill="#822B3B"/>
<path d="M45.9676 2.78324C50.6168 -0.67072 57.2505 0.82856 59.9624 5.9462L82.9105 49.2518C85.1967 53.5661 83.8224 58.9115 79.7389 61.5881L41.3102 86.777C36.8365 89.7094 30.823 88.3503 28.0452 83.7789L4.18429 44.5119C1.64878 40.3393 2.70689 34.9224 6.62621 32.0107L45.9676 2.78324Z" fill="#9D4555"/>
<path d="M50.6762 2.86134C52.1873 0.916842 55.2882 1.68902 55.711 4.11506L62.3983 42.4939C62.7795 44.6818 61.5866 46.8402 59.5312 47.6814L44.5756 53.8019C42.8229 54.5191 40.8112 54.1214 39.4634 52.791L26.8401 40.3313C25.1352 38.6485 24.9583 35.9566 26.4281 34.0652L50.6762 2.86134Z" fill="#BC6071"/>
<path d="M38.9455 86.1394C37.5231 87.0693 35.6913 85.7971 36.066 84.1395L41.328 60.8575C41.8764 58.4306 43.5832 56.4287 45.8927 55.5031L60.9948 49.451C62.2633 48.9426 63.6897 49.008 64.9064 49.6302L77.3234 55.9802C79.2626 56.9719 79.4071 59.6886 77.584 60.8804L38.9455 86.1394Z" fill="#822B3B"/>
<path d="M30.2462 84.0518C31.1365 85.4927 33.3265 85.1268 33.6998 83.4747L39.0249 59.9136C39.601 57.3648 38.8208 54.6991 36.9614 52.863L24.6718 40.7278C23.7632 39.8307 22.5305 39.3392 21.254 39.365L7.8348 39.6367C5.63935 39.6812 4.32466 42.0959 5.47884 43.964L30.2462 84.0518Z" fill="#8C3847"/>
</g>
<defs>
<clipPath id="clip0">
<rect width="143" height="90" fill="white"/>
</clipPath>
</defs>
</svg>
