<svg width="90" height="90" viewBox="0 0 90 90" fill="none" xmlns="http://www.w3.org/2000/svg">
<path d="M49.259 3.91701C45.7456 2.70536 41.923 2.72635 38.4231 3.97636L23.3878 9.34613C19.9556 10.5721 17.03 12.9093 15.077 15.9869L5.54764 31.004C3.88344 33.6252 3 36.6656 3 39.7701L3 52.0666C3 55.3761 4.00416 58.6077 5.87935 61.335L15.0533 74.6794C17.0526 77.5868 19.9376 79.7703 23.2784 80.9031L38.6657 86.1247C42.0189 87.262 45.6497 87.2812 49.0153 86.1789L65.276 80.8512C68.61 79.759 71.5051 77.6242 73.5338 74.761L82.9898 61.41C84.9485 58.6455 86 55.3414 86 51.9536V39.8783C86 36.6983 85.0737 33.5871 83.3328 30.9254L73.5168 15.9124C71.53 12.874 68.5897 10.5826 65.1575 9.39915L49.259 3.91701Z" fill="#DC7338"/>
<path d="M23.7387 14.5226C22.9929 13.2893 23.5796 11.6825 24.9437 11.2186L43.5466 4.89361C44.0216 4.73193 44.5384 4.73351 45.0122 4.89813L63.1537 11.1921C64.5245 11.6676 65.0966 13.2949 64.3248 14.5238L54.6206 29.9792C54.2076 30.6367 53.4855 31.0358 52.7093 31.0358H34.9966C34.2068 31.0358 33.4734 30.6228 33.065 29.9468L23.7387 14.5226Z" fill="#F48647"/>
<path d="M67.4891 16.9304C68.3917 15.5455 70.4271 15.5678 71.2982 16.9721L82.8121 35.5325C83.0344 35.8897 83.1518 36.3017 83.1518 36.7221L83.1518 51.4071C83.1518 52.7713 82.1045 54.2431 80.7528 54.0636L64.6662 51.5294C63.811 51.4158 63.0956 50.8246 62.8226 50.006L57.4543 33.9024C57.2377 33.2499 57.3291 32.5338 57.7048 31.9574L67.4891 16.9304Z" fill="#CD5B1B"/>
<path d="M21.1995 17.1437C20.3341 15.6902 18.2356 15.6714 17.3442 17.109L5.91486 35.5324C5.69259 35.8896 5.57526 36.3017 5.57526 36.7221L5.57526 51.3705C5.57526 52.7473 6.7983 53.8033 8.16012 53.603L22.2229 51.5363C23.0318 51.4173 23.7122 50.8707 24.0033 50.107L30.1817 33.8899C30.4265 33.2454 30.3645 32.524 30.0113 31.9316L21.1995 17.1437Z" fill="#F48647"/>
<path d="M38.5838 83.3938C40.0472 83.8914 42.1149 82.7989 42.1149 81.2532V69.8049C42.1149 69.1169 41.2522 67.8834 40.714 67.4553L25.1969 55.1214C24.6971 54.724 24.0528 54.557 23.4221 54.6621L9.479 56.9859C7.83962 57.2592 7.04871 59.1521 8.00548 60.5114L19.1505 76.3297C19.4258 76.7199 19.8173 77.0129 20.2686 77.1665L38.5838 83.3938Z" fill="#CD5B1B"/>
<path d="M49.2563 83.3939C47.793 83.8915 45.454 82.799 45.454 81.2533V69.805C45.454 69.1412 46.5665 67.8856 47.0731 67.4569L61.6007 55.1646C62.1005 54.7408 63.4099 54.4384 64.0575 54.5406L79.3219 56.9257C80.9725 57.1861 80.7768 59.1737 79.8144 60.5398L68.6896 76.3298C68.4155 76.7199 68.0239 77.013 67.5715 77.1666L49.2563 83.3939Z" fill="#CD5B1B"/>
</svg>
