<svg width="90" height="90" viewBox="0 0 90 90" fill="none" xmlns="http://www.w3.org/2000/svg">
<path d="M49.4884 1.93676C45.8056 0.666722 41.7988 0.68872 38.1303 1.99897L22.3704 7.62753C18.7728 8.91259 15.7062 11.3624 13.659 14.5883L3.67041 30.3292C1.92601 33.0767 1 36.2636 1 39.5177L1 52.4068C1 55.8758 2.05256 59.2632 4.01811 62.1218L13.6342 76.1094C15.7298 79.1569 18.7538 81.4457 22.2557 82.633L38.3846 88.1063C41.8994 89.2984 45.7051 89.3185 49.2329 88.1631L66.2772 82.5786C69.7719 81.4338 72.8066 79.1961 74.933 76.195L84.8447 62.2005C86.8978 59.3028 88 55.8394 88 52.2884V39.6312C88 36.2979 87.0291 33.0367 85.2042 30.2468L74.9152 14.5103C72.8326 11.3254 69.7506 8.92358 66.153 7.68311L49.4884 1.93676Z" fill="#DC7338"/>
<path d="M22.7382 13.0535C21.9564 11.7607 22.5714 10.0765 24.0012 9.59022L43.5007 2.96044C43.9985 2.79097 44.5402 2.79262 45.0369 2.96517L64.0526 9.56243C65.4895 10.0609 66.0891 11.7666 65.2802 13.0548L55.1083 29.255C54.6755 29.9441 53.9186 30.3625 53.1049 30.3625H34.5386C33.7107 30.3625 32.942 29.9296 32.5139 29.221L22.7382 13.0535Z" fill="#F48647"/>
<path d="M68.5971 15.5772C69.5432 14.1257 71.6767 14.149 72.5897 15.621L84.6585 35.0758C84.8915 35.4503 85.0145 35.8822 85.0145 36.3228V51.7155C85.0145 53.1455 83.9168 54.6882 82.5 54.5L65.6381 51.8437C64.7416 51.7246 63.9919 51.1049 63.7057 50.2469L58.0786 33.3672C57.8516 32.6832 57.9474 31.9326 58.3412 31.3285L68.5971 15.5772Z" fill="#CD5B1B"/>
<path d="M20.0766 15.8008C19.1695 14.2774 16.9698 14.2576 16.0355 15.7645L4.05531 35.0758C3.82233 35.4502 3.69934 35.8821 3.69934 36.3228L3.69934 51.6772C3.69934 53.1203 4.98133 54.2272 6.40878 54.0173L21.1492 51.8509C21.9972 51.7262 22.7103 51.1532 23.0155 50.3527L29.4916 33.3541C29.7482 32.6786 29.6832 31.9224 29.313 31.3014L20.0766 15.8008Z" fill="#F48647"/>
<path d="M38.2987 85.2437C39.8326 85.7653 42 84.6202 42 83V71C42 70.2788 41.0957 68.9858 40.5315 68.5371L24.2667 55.6088C23.7427 55.1923 23.0675 55.0173 22.4064 55.1274L7.79125 57.5631C6.07287 57.8497 5.24384 59.8338 6.24672 61.2585L17.9289 77.8392C18.2174 78.2482 18.6278 78.5553 19.1009 78.7164L38.2987 85.2437Z" fill="#CD5B1B"/>
<path d="M49.4855 85.2438C47.9516 85.7654 45.5 84.6202 45.5 83V71C45.5 70.3043 46.6661 68.9881 47.1971 68.5387L62.4248 55.6541C62.9487 55.2099 64.3212 54.8929 65 55L81 57.5C82.7302 57.773 82.525 59.8563 81.5162 61.2883L69.8554 77.8393C69.568 78.2482 69.1576 78.5554 68.6834 78.7164L49.4855 85.2438Z" fill="#CD5B1B"/>
</svg>
