<svg width="90" height="90" viewBox="0 0 90 90" fill="none" xmlns="http://www.w3.org/2000/svg">
<path d="M49.4884 1.93676C45.8056 0.666722 41.7988 0.68872 38.1303 1.99897L22.3704 7.62753C18.7728 8.91259 15.7062 11.3624 13.659 14.5883L3.67041 30.3292C1.92601 33.0767 1 36.2636 1 39.5177L1 52.4068C1 55.8758 2.05256 59.2632 4.01811 62.1218L13.6342 76.1094C15.7298 79.1569 18.7538 81.4457 22.2557 82.633L38.3846 88.1063C41.8994 89.2984 45.7051 89.3185 49.2329 88.1631L66.2772 82.5786C69.7719 81.4338 72.8066 79.1961 74.933 76.195L84.8447 62.2005C86.8978 59.3028 88 55.8394 88 52.2884V39.6312C88 36.2979 87.0291 33.0367 85.2042 30.2468L74.9152 14.5103C72.8326 11.3254 69.7506 8.92358 66.153 7.68311L49.4884 1.93676Z" fill="#A43730"/>
</svg>
