<svg width="90" height="90" viewBox="0 0 90 90" fill="none" xmlns="http://www.w3.org/2000/svg">
<g clip-path="url(#clip0_747_2)">
<path d="M0.766399 38.3344L9.95311 72.1481C10.8896 75.595 13.6134 78.2629 17.0915 79.1399L52.9718 88.1876C56.5018 89.0777 60.2553 87.9839 62.7711 85.3319L86.831 59.9703C89.2065 57.4663 90.1337 53.9343 89.2862 50.6176L80.6891 16.9726C79.7986 13.4876 77.085 10.7673 73.5902 9.85625L37.4737 0.441034C33.9353 -0.4814 30.1567 0.59655 27.6205 3.25197L3.20713 28.8125C0.777729 31.3561 -0.148157 34.9682 0.766399 38.3344Z" fill="#A43730"/>
<path d="M36.307 19.5055C36.6283 21.0743 35.6606 22.6173 34.1086 23.0111L6.12526 30.1105C5.14818 30.3584 4.45821 29.1686 5.15952 28.4452L29.7498 3.08014C30.8684 1.92626 32.8243 2.49826 33.1469 4.07362L36.307 19.5055Z" fill="#CD483F"/>
<path d="M38.2209 18.9956C38.6041 20.6545 40.2897 21.6605 41.9324 21.2107L71.9916 12.981C72.9733 12.7123 72.9746 11.32 71.9934 11.0517L37.2176 1.54287C35.7576 1.14364 34.3989 2.44963 34.7397 3.92477L38.2209 18.9956Z" fill="#CD483F"/>
<path d="M75.8933 52.061C74.2892 51.6437 73.2392 49.9508 73.5588 48.297L78.5562 22.4381C78.7589 21.3893 80.1938 21.4372 80.4573 22.5015L87.8066 52.1931C88.1713 53.6666 86.9691 54.942 85.5608 54.5756L75.8933 52.061Z" fill="#8D352F"/>
<path d="M73.5806 53.2482C72.1455 52.8677 70.7314 53.6684 70.2788 55.1177L62.1973 80.9971C61.8785 82.0181 63.1047 82.8761 63.8162 82.1301L85.3079 59.5949C86.3694 58.4819 85.7792 56.4825 84.2712 56.0827L73.5806 53.2482Z" fill="#8D312C"/>
<path d="M22.472 66.3371C23.6556 65.174 23.7178 63.183 22.6101 61.9127L5.25491 42.009C4.55231 41.2032 3.33148 41.9658 3.63964 43.0179L12.2388 72.3771C12.664 73.829 14.3413 74.3269 15.3773 73.3089L22.472 66.3371Z" fill="#8D352F"/>
<path d="M25.1115 66.1775C26.1506 65.1467 27.7486 65.1176 28.8664 66.1091L48.9536 83.9268C49.7538 84.6366 49.1401 86.007 48.1448 85.7327L18.1978 77.4808C16.7023 77.0687 16.1943 75.0234 17.312 73.9146L25.1115 66.1775Z" fill="#8D312C"/>
<path d="M74.0051 13.5101C76.1448 12.8647 78.2037 14.6678 77.8232 16.8539L72.7601 45.9414C72.3496 48.2996 69.4607 49.2731 67.7179 47.6406L45.4613 26.7937C43.7834 25.2221 44.4633 22.4211 46.6854 21.7508L74.0051 13.5101Z" fill="#C13C33"/>
<path d="M3.09767 37.0599C1.63234 35.3788 2.44651 32.7455 4.60433 32.1869L31.8005 25.1468C34.023 24.5715 36.0441 26.6038 35.4555 28.8221L27.6767 58.1397C27.0602 60.4632 24.0958 61.1511 22.515 59.3374L3.09767 37.0599Z" fill="#C63D34"/>
<path d="M34.0371 67.8424C32.2858 66.2666 32.951 63.3797 35.2152 62.729L64.5556 54.2979C66.8797 53.6301 68.9984 55.8453 68.2277 58.1373L59.2362 84.879C58.5484 86.9247 55.9903 87.5966 54.386 86.153L34.0371 67.8424Z" fill="#8D312C"/>
</g>
<defs>
<clipPath id="clip0_747_2">
<rect width="90" height="90" fill="white"/>
</clipPath>
</defs>
</svg>
