<svg width="90" height="90" viewBox="0 0 90 90" fill="none" xmlns="http://www.w3.org/2000/svg">
<g clip-path="url(#clip0)">
<path d="M41.1023 5.19607C45.0374 0.980514 51.7129 0.958034 55.6763 5.147L84.2182 35.3135C87.0979 38.3571 87.7748 42.8732 85.914 46.6274L67.4704 83.8361C64.9093 89.003 58.5205 90.9387 53.5224 88.062L6.04095 60.7343C0.460339 57.5224 -0.674583 49.9504 3.71914 45.2435L41.1023 5.19607Z" fill="#73C54D"/>
<path d="M81.8952 36.2681C84.495 39.0098 85.1056 43.0835 83.4238 46.4669L65.4586 82.6092C63.7173 86.1124 58.5008 85.2906 57.9209 81.4216L47.265 10.3263C46.6851 6.4573 51.4314 4.14223 54.1233 6.98102L81.8952 36.2681Z" fill="#8ED16F"/>
</g>
<defs>
<clipPath id="clip0">
<rect width="90" height="90" fill="white"/>
</clipPath>
</defs>
</svg>
