<svg width="90" height="90" viewBox="0 0 90 90" fill="none" xmlns="http://www.w3.org/2000/svg">
<g clip-path="url(#clip0)">
<path d="M10.4142 70.7792L39.0249 87.6154C42.1295 89.4423 45.9768 89.4582 49.0965 87.6571L78.9638 70.4132C82.1297 68.5854 84.0459 65.1757 83.9611 61.521L83.1991 28.6826C83.1201 25.2761 81.3119 22.1443 78.4014 20.3726L50.2969 3.26519C47.1989 1.37946 43.3229 1.31883 40.1675 3.10674L9.89821 20.258C6.703 22.0685 4.75726 25.4847 4.83 29.1564L5.48775 62.3588C5.55652 65.8306 7.42143 69.0181 10.4142 70.7792Z" fill="#5868B7"/>
<path d="M40.991 45.4922C39.3113 46.462 37.2223 46.3728 35.6313 45.2635L9.24963 26.8693C8.04813 26.0315 8.12504 24.229 9.39352 23.4966L42.4 4.44032C43.9765 3.53013 45.9231 3.54866 47.482 4.4887L76.1425 21.7716C77.4465 22.5579 77.4285 24.455 76.1097 25.2163L40.991 45.4922Z" fill="#6A7BCD"/>
<path d="M42.8114 48.6452C41.1317 49.615 40.1644 51.4687 40.3296 53.4012L43.0687 85.4455C43.1934 86.9049 44.7929 87.7395 46.0614 87.0072L79.0679 67.9509C80.6444 67.0407 81.6016 65.3456 81.567 63.5256L80.9298 30.0633C80.9008 28.5409 79.2489 27.608 77.9302 28.3694L42.8114 48.6452Z" fill="#45549D"/>
</g>
<defs>
<clipPath id="clip0">
<rect width="90" height="90" fill="white"/>
</clipPath>
</defs>
</svg>
