<svg width="90" height="90" viewBox="0 0 90 90" fill="none" xmlns="http://www.w3.org/2000/svg">
<g clip-path="url(#clip0)">
<path d="M0.979194 31.6538C-1.17156 26.2591 1.71014 20.1731 7.24626 18.418L55.197 3.21695C60.1405 1.64978 65.4618 4.12182 67.4527 8.91043L87.8966 58.0833C90.1839 63.5849 87.183 69.8536 81.4632 71.5221L32.3269 85.8559C27.3797 87.299 22.1459 84.7463 20.2375 79.9593L0.979194 31.6538Z" fill="#D5A018"/>
<path d="M38.9847 47.1455C37.4431 49.8924 33.7762 50.5467 31.3797 48.5026L4.98418 25.9888C3.20004 24.4671 3.77321 21.5786 6.00324 20.8534L57.0965 4.23767C59.6942 3.39289 61.9774 6.17675 60.6405 8.55885L38.9847 47.1455Z" fill="#EBB834"/>
<path d="M34.536 55.5171C35.3562 52.9447 38.0705 51.4881 40.6675 52.2267L82.2268 64.0463C85.1247 64.8705 85.1354 68.9738 82.2419 69.8131L30.0544 84.9515C27.7493 85.6201 25.6313 83.4456 26.3604 81.1589L34.536 55.5171Z" fill="#BE8A00"/>
</g>
<defs>
<clipPath id="clip0">
<rect width="90" height="90" fill="white"/>
</clipPath>
</defs>
</svg>
