<svg width="88" height="86" viewBox="0 0 88 86" fill="none" xmlns="http://www.w3.org/2000/svg">
<path d="M36 5C30.5856 5 25.0204 5 19.001 5C11.269 5 5 11.268 5 19V35M52 5C57.4144 5 62.9796 5 68.999 5C76.731 5 83 11.268 83 19V35M5 51V67C5 74.732 11.268 81 19 81H36M83 51V67C83 74.732 76.732 81 69 81H52" stroke="white" stroke-width="10"/>
<path d="M39.6923 23C38.804 23 37.9082 23 37.0003 23C29.2683 23 23 29.268 23 37V38.7895M48.3077 23C49.196 23 50.0918 23 50.9997 23C58.7317 23 65 29.268 65 37V38.7895M23 47.2105V49C23 56.732 29.268 63 37 63H39.6923M65 47.2105V49C65 56.732 58.732 63 51 63H48.3077" stroke="white" stroke-width="10"/>
</svg>
